<svg width="23" height="24" fill="none" xmlns="http://www.w3.org/2000/svg"><path d="M16.77 6.5h.01M6.708 2h9.584c2.646 0 4.791 2.239 4.791 5v10c0 2.761-2.145 5-4.791 5H6.708c-2.646 0-4.791-2.239-4.791-5V7c0-2.761 2.145-5 4.791-5zm8.625 9.37a4.152 4.152 0 01-.389 2.429 3.918 3.918 0 01-1.68 1.73c-.72.379-1.535.51-2.332.377a3.78 3.78 0 01-2.101-1.12 4.064 4.064 0 01-1.074-2.194 4.154 4.154 0 01.36-2.434 3.924 3.924 0 011.659-1.752A3.694 3.694 0 0112.104 8a3.777 3.777 0 012.148 1.128c.582.607.96 1.393 1.081 2.242z" stroke="#FF1717" stroke-width="2" stroke-linecap="round" stroke-linejoin="round"/></svg>