<svg width="24" height="23" fill="none" xmlns="http://www.w3.org/2000/svg"><path d="M22.54 6.153a2.636 2.636 0 00-.701-1.209 2.806 2.806 0 00-1.239-.708c-1.72-.403-8.6-.403-8.6-.403s-6.88 0-8.6.441c-.47.128-.898.372-1.239.709-.34.336-.582.753-.701 1.208A26.665 26.665 0 001 11.26a26.665 26.665 0 00.46 5.107c.131.441.378.842.718 1.164.34.323.76.555 1.222.676 1.72.441 8.6.441 8.6.441s6.88 0 8.6-.44c.47-.128.898-.373 1.239-.71.34-.336.582-.752.701-1.207.312-1.66.466-3.345.46-5.032a26.67 26.67 0 00-.46-5.107z" stroke="#FF1717" stroke-width="2" stroke-linecap="round" stroke-linejoin="round"/><path d="M9.75 14.394l5.75-3.133-5.75-3.134v6.267z" stroke="#FF1717" stroke-width="2" stroke-linecap="round" stroke-linejoin="round"/></svg>